<?xml version="1.0" standalone="no"?>
<!DOCTYPE svg PUBLIC "-//W3C//DTD SVG 20010904//EN"
 "http://www.w3.org/TR/2001/REC-SVG-20010904/DTD/svg10.dtd">
<svg version="1.0" xmlns="http://www.w3.org/2000/svg"
 width="854.000000pt" height="854.000000pt" viewBox="0 0 854.000000 854.000000"
 preserveAspectRatio="xMidYMid meet">
<metadata>
Created by potrace 1.14, written by Peter Selinger 2001-2017
</metadata>
<g transform="translate(0.000000,854.000000) scale(0.100000,-0.100000)"
fill="#000000" stroke="none">
<path d="M4032 8470 c-22 -21 -26 -34 -22 -77 1 -18 -42 -99 -137 -258 -7 -11
-18 -31 -25 -45 -7 -14 -15 -27 -18 -30 -10 -9 -41 -65 -47 -82 -3 -10 -9 -18
-14 -18 -5 0 -9 -6 -9 -14 0 -7 -9 -25 -21 -40 -11 -14 -17 -26 -13 -26 4 0 0
-8 -8 -17 -12 -14 -113 -185 -209 -353 -8 -14 -16 -27 -19 -30 -3 -3 -10 -14
-16 -25 -11 -20 -133 -231 -184 -318 -14 -24 -56 -97 -95 -163 -38 -65 -73
-122 -78 -125 -5 -3 -8 -9 -7 -13 0 -4 -15 -33 -34 -65 -20 -32 -36 -61 -36
-65 0 -11 -33 -45 -40 -41 -4 2 -47 7 -96 10 -139 8 -246 16 -449 31 -44 3
-109 8 -145 10 -36 2 -96 6 -135 9 -38 2 -104 6 -145 9 -92 6 -226 16 -435 32
-38 2 -104 7 -145 9 -186 11 -225 16 -246 36 -71 66 -178 -36 -110 -104 14
-14 29 -27 34 -28 5 -2 30 -65 55 -139 58 -170 172 -497 198 -570 11 -30 24
-68 28 -85 5 -16 25 -75 45 -130 20 -55 38 -107 41 -115 2 -8 7 -25 11 -37 5
-17 0 -25 -25 -37 -17 -9 -31 -14 -31 -10 0 4 -6 2 -12 -4 -7 -5 -58 -30 -113
-55 -55 -25 -136 -61 -180 -82 -44 -20 -85 -38 -92 -39 -7 -1 -15 -5 -18 -8
-4 -3 -23 -4 -44 -1 -45 6 -88 -17 -93 -50 -6 -35 22 -85 51 -92 31 -8 61 -33
61 -51 0 -7 4 -14 8 -16 5 -1 28 -32 52 -68 24 -36 47 -66 52 -68 4 -2 8 -8 8
-13 0 -9 36 -65 50 -79 5 -5 62 -88 131 -190 24 -36 48 -69 52 -75 5 -5 35
-48 67 -95 32 -47 64 -90 69 -97 6 -7 11 -15 11 -18 0 -3 23 -37 51 -76 28
-39 53 -77 56 -85 4 -10 -58 -124 -127 -234 -5 -8 -17 -28 -26 -45 -9 -16 -62
-106 -118 -200 -55 -93 -101 -172 -101 -175 -1 -7 -41 -72 -52 -85 -5 -5 -9
-12 -9 -15 0 -3 -7 -16 -16 -30 -9 -14 -51 -86 -93 -160 -43 -74 -86 -146 -95
-160 -9 -14 -31 -50 -47 -80 -17 -30 -92 -160 -167 -288 -167 -285 -177 -302
-218 -374 -18 -33 -40 -58 -48 -58 -9 0 -27 -10 -39 -21 -19 -18 -22 -29 -18
-62 8 -60 52 -80 111 -52 36 17 117 17 301 -1 51 -5 149 -11 290 -19 44 -2
109 -7 145 -10 36 -3 94 -8 130 -10 36 -2 97 -7 135 -9 39 -3 113 -8 165 -12
52 -3 111 -8 130 -9 19 -2 86 -6 147 -10 62 -4 132 -9 155 -11 24 -2 86 -6
138 -10 52 -3 118 -7 145 -9 28 -2 97 -7 155 -10 96 -6 123 -13 126 -33 0 -4
3 -14 7 -22 3 -8 15 -44 27 -80 12 -36 25 -74 30 -85 5 -11 29 -81 54 -155 24
-74 71 -212 104 -306 44 -127 57 -175 50 -188 -17 -31 0 -84 32 -101 36 -19
34 -19 69 0 16 8 32 24 36 35 4 11 27 30 53 41 150 68 219 100 234 109 10 6
25 10 33 10 8 0 15 5 15 10 0 6 5 10 11 10 5 0 35 11 65 25 30 14 57 25 60 25
7 0 43 -45 59 -71 6 -10 28 -44 51 -76 22 -32 67 -96 100 -143 175 -254 257
-372 335 -483 127 -182 233 -336 246 -359 6 -11 15 -23 20 -27 22 -15 41 -60
38 -90 -3 -42 33 -81 75 -81 17 0 30 5 30 10 0 6 6 10 14 10 17 0 30 34 28 73
-2 17 12 52 33 88 19 33 35 62 35 65 0 3 5 10 10 17 19 21 170 286 170 297 0
5 3 10 8 10 4 0 18 21 32 47 14 27 30 54 37 61 7 7 13 18 13 23 0 6 15 33 33
62 19 29 45 72 59 97 27 47 484 829 535 915 20 33 36 49 48 48 10 -1 71 -4
134 -8 64 -4 136 -9 161 -10 54 -4 174 -13 290 -20 47 -3 110 -8 140 -10 67
-6 176 -13 295 -20 50 -3 110 -8 135 -10 65 -6 205 -16 275 -20 277 -16 347
-23 355 -33 3 -4 16 -15 31 -24 46 -29 109 16 109 79 0 9 -15 30 -33 47 -29
27 -44 57 -74 146 -3 8 -37 105 -75 215 -38 110 -95 277 -126 370 -31 94 -61
173 -65 176 -5 3 -7 8 -6 10 2 3 -40 140 -58 186 -5 13 12 22 227 118 58 26
130 59 160 73 73 34 78 35 130 34 98 -3 131 108 42 145 -33 14 -71 49 -72 66
0 4 -11 20 -25 35 -14 15 -25 32 -25 39 0 6 -3 13 -7 15 -5 2 -26 30 -48 63
-22 33 -44 65 -48 70 -37 47 -97 137 -97 145 0 5 -4 10 -10 10 -5 0 -10 7 -10
15 0 8 -3 15 -8 15 -4 0 -18 18 -32 40 -14 22 -28 40 -32 40 -5 0 -8 6 -8 13
0 7 -8 22 -17 33 -10 11 -22 27 -28 36 -5 9 -24 36 -40 59 -17 24 -61 88 -99
142 -75 108 -73 94 -19 187 12 19 74 125 138 235 65 110 156 267 204 348 104
179 103 177 205 352 45 77 95 163 111 190 15 28 31 52 34 55 3 3 20 31 36 62
17 32 33 58 38 58 4 0 7 5 7 11 0 6 23 49 51 97 29 48 60 101 70 119 10 17 29
50 43 72 15 22 26 43 26 46 0 2 15 28 33 57 18 29 39 65 46 80 8 15 23 28 35
30 11 2 30 18 43 36 18 27 20 38 12 59 -5 15 -17 32 -27 39 -23 18 -77 17 -92
-1 -12 -15 -78 -15 -255 0 -27 2 -90 7 -140 10 -49 3 -112 7 -140 10 -46 4
-129 10 -280 19 -80 6 -239 17 -295 21 -119 9 -280 19 -322 20 -27 0 -48 2
-48 5 0 3 -21 5 -48 6 -26 0 -92 4 -147 8 -55 4 -129 9 -165 11 -57 4 -170 12
-265 20 -16 1 -33 3 -36 4 -3 0 -12 20 -19 44 -8 23 -16 47 -19 52 -3 6 -6 13
-7 18 -1 4 -2 8 -4 10 -1 1 -3 9 -5 17 -2 8 -20 60 -40 115 -20 55 -38 107
-40 115 -2 8 -38 114 -80 235 -90 259 -80 224 -71 258 26 91 -86 147 -133 66
-9 -16 -29 -35 -46 -43 -183 -85 -217 -100 -227 -98 -5 1 -8 -2 -8 -8 0 -5 -5
-10 -12 -10 -6 0 -36 -12 -67 -27 -31 -15 -58 -28 -61 -28 -3 -1 -18 -7 -34
-14 -16 -6 -30 -10 -31 -9 -1 2 -31 46 -66 98 -35 52 -66 97 -69 100 -3 3 -34
48 -70 100 -35 52 -67 97 -70 100 -3 3 -17 23 -30 45 -13 22 -27 42 -30 45 -3
3 -48 67 -100 143 -52 76 -115 167 -140 202 -25 35 -81 116 -125 180 -44 64
-94 135 -111 159 -24 31 -31 51 -29 76 6 66 -74 105 -123 60z"/>
</g>
</svg>
